<svg width="1600" height="900" viewBox="0 0 1600 900" fill="none" xmlns="http://www.w3.org/2000/svg">
  <defs>
    <radialGradient id="bg" cx="50%" cy="50%" r="70%">
      <stop offset="0%" stop-color="#0b1f3a"/>
      <stop offset="55%" stop-color="#050914"/>
      <stop offset="100%" stop-color="#01030a"/>
    </radialGradient>
    <linearGradient id="blue" x1="0" y1="0" x2="1" y2="1">
      <stop offset="0%" stop-color="#6ee7ff"/>
      <stop offset="100%" stop-color="#3b82f6"/>
    </linearGradient>
    <linearGradient id="gold" x1="0" y1="0" x2="1" y2="1">
      <stop offset="0%" stop-color="#ffe18a"/>
      <stop offset="100%" stop-color="#f59e0b"/>
    </linearGradient>
    <filter id="glow"><feGaussianBlur stdDeviation="4" result="coloredBlur"/><feMerge><feMergeNode in="coloredBlur"/><feMergeNode in="SourceGraphic"/></feMerge></filter>
  </defs>

  <rect width="1600" height="900" fill="url(#bg)"/>
  <g opacity="0.18">
    <path d="M0 120H1600M0 240H1600M0 360H1600M0 480H1600M0 600H1600M0 720H1600" stroke="#5b8cff"/>
    <path d="M160 0V900M320 0V900M480 0V900M640 0V900M800 0V900M960 0V900M1120 0V900M1280 0V900M1440 0V900" stroke="#5b8cff"/>
  </g>

  <text x="70" y="170" fill="#f8fafc" font-family="Inter, Arial, sans-serif" font-size="84" font-weight="800">Memory</text>
  <text x="70" y="260" fill="#c7d2fe" font-family="Inter, Arial, sans-serif" font-size="84" font-weight="800">Integrity Layer</text>
  <text x="72" y="325" fill="#94a3b8" font-family="Inter, Arial, sans-serif" font-size="28">Deterministic Memory Layer for AI Systems</text>
  <line x1="72" y1="365" x2="470" y2="365" stroke="url(#blue)" stroke-width="3"/>
  <text x="72" y="430" fill="#e2e8f0" font-family="Inter, Arial, sans-serif" font-size="24">The model proposes memory.</text>
  <text x="72" y="470" fill="#e2e8f0" font-family="Inter, Arial, sans-serif" font-size="24">The integrity layer decides what becomes truth.</text>

  <g transform="translate(610 170)">
    <text x="0" y="0" fill="#cbd5e1" font-family="Inter, Arial, sans-serif" font-size="18" letter-spacing="4">MEMORY LAYERS</text>
    <g filter="url(#glow)">
      <rect x="0" y="35" width="300" height="90" rx="18" fill="#07111f" stroke="url(#blue)" stroke-width="2"/>
      <rect x="0" y="155" width="300" height="90" rx="18" fill="#07111f" stroke="url(#blue)" stroke-width="2"/>
      <rect x="0" y="275" width="300" height="90" rx="18" fill="#07111f" stroke="url(#blue)" stroke-width="2"/>
      <rect x="0" y="395" width="300" height="90" rx="18" fill="#07111f" stroke="url(#blue)" stroke-width="2"/>
    </g>
    <text x="34" y="90" fill="#e0f2fe" font-family="Inter, Arial, sans-serif" font-size="22" font-weight="700">Global Memory</text>
    <text x="34" y="210" fill="#e0f2fe" font-family="Inter, Arial, sans-serif" font-size="22" font-weight="700">Project Memory</text>
    <text x="34" y="330" fill="#e0f2fe" font-family="Inter, Arial, sans-serif" font-size="22" font-weight="700">Task Memory</text>
    <text x="34" y="450" fill="#e0f2fe" font-family="Inter, Arial, sans-serif" font-size="22" font-weight="700">Session Memory</text>
  </g>

  <g transform="translate(1010 155)" filter="url(#glow)">
    <rect x="0" y="0" width="360" height="500" rx="30" fill="#080c14" stroke="url(#gold)" stroke-width="2"/>
    <rect x="35" y="45" width="290" height="80" rx="16" fill="#111827" stroke="#fbbf24"/>
    <text x="92" y="95" fill="#fef3c7" font-family="Inter, Arial, sans-serif" font-size="20" font-weight="800">INTEGRITY CORE</text>
    <circle cx="180" cy="245" r="90" stroke="url(#gold)" stroke-width="3" opacity="0.7"/>
    <circle cx="180" cy="245" r="55" stroke="url(#gold)" stroke-width="2" opacity="0.8"/>
    <polygon points="180,185 232,215 232,275 180,305 128,275 128,215" fill="rgba(245,158,11,.22)" stroke="#fde68a" stroke-width="3"/>
    <text x="73" y="385" fill="#fef3c7" font-family="Inter, Arial, sans-serif" font-size="19">✓ Consistency Checks</text>
    <text x="73" y="425" fill="#fef3c7" font-family="Inter, Arial, sans-serif" font-size="19">✓ Conflict Detection</text>
    <text x="73" y="465" fill="#fef3c7" font-family="Inter, Arial, sans-serif" font-size="19">✓ Validated Truth</text>
  </g>

  <g stroke="url(#blue)" stroke-width="3" opacity="0.85" filter="url(#glow)">
    <path d="M910 250 C960 250 965 250 1010 250"/>
    <path d="M910 370 C960 370 965 370 1010 370"/>
    <path d="M910 490 C960 490 965 490 1010 490"/>
    <path d="M1370 405 C1430 405 1430 405 1500 405"/>
  </g>

  <g transform="translate(1420 330)" filter="url(#glow)">
    <rect x="0" y="0" width="120" height="120" rx="18" fill="#07111f" stroke="url(#blue)" stroke-width="2"/>
    <path d="M60 25L95 40V65C95 88 79 103 60 110C41 103 25 88 25 65V40L60 25Z" fill="rgba(59,130,246,.25)" stroke="#93c5fd" stroke-width="3"/>
    <path d="M42 66L55 79L82 48" stroke="#bfdbfe" stroke-width="7" stroke-linecap="round" stroke-linejoin="round"/>
    <text x="-20" y="165" fill="#cbd5e1" font-family="Inter, Arial, sans-serif" font-size="20" font-weight="700">TRUSTED MEMORY</text>
  </g>

  <g transform="translate(72 710)">
    <rect x="0" y="0" width="1450" height="92" rx="16" fill="rgba(15,23,42,.62)" stroke="#334155"/>
    <text x="40" y="58" fill="#dbeafe" font-family="Inter, Arial, sans-serif" font-size="20" letter-spacing="5">PROTECTING TRUTH · PREVENTING DRIFT · POWERING TRUSTED AI</text>
  </g>
</svg>
